HIERARCHY
ROOT Hips
{
	OFFSET 0.000000 121.760803 0.000000
	CHANNELS 6 Xposition Yposition Zposition Xrotation Yrotation Zrotation 
	JOINT Spine
	{
		OFFSET 0.072000 7.257294 -0.789700
		CHANNELS 3 Xrotation Yrotation Zrotation
		JOINT Spine1
		{
			OFFSET 0.000000 12.508769 -0.658067
			CHANNELS 3 Xrotation Yrotation Zrotation
			JOINT Spine1_split
			{
				OFFSET 0.000000 12.508769 -0.658067
				CHANNELS 3 Xrotation Yrotation Zrotation
				JOINT Spine2
				{
					OFFSET 0.000000 12.508769 -0.658067
					CHANNELS 3 Xrotation Yrotation Zrotation
					JOINT Neck
					{
						OFFSET 0.000000 14.033295 7.520400
						CHANNELS 3 Xrotation Yrotation Zrotation
						JOINT Head
						{
							OFFSET 0.000000 8.198502 5.703100
							CHANNELS 3 Xrotation Yrotation Zrotation
							JOINT HeadTop_End
							{
								OFFSET 0.000000 17.760803 13.332701
								CHANNELS 3 Xrotation Yrotation Zrotation
								End Site
								{
									OFFSET 0.000000 0.000000 0.000000
								}
							}
						}
					}
					JOINT LeftShoulder
					{
						OFFSET 6.292450 5.785301 -0.669000
						CHANNELS 3 Xrotation Yrotation Zrotation
						JOINT LeftShoulder_split
						{
							OFFSET 6.292450 5.785301 -0.669000
							CHANNELS 3 Xrotation Yrotation Zrotation
							JOINT LeftArm
							{
								OFFSET 13.907140 -6.093903 1.965100
								CHANNELS 3 Xrotation Yrotation Zrotation
								JOINT LeftForeArm
								{
									OFFSET 34.140198 0.000000 0.000000
									CHANNELS 3 Xrotation Yrotation Zrotation
									JOINT LeftHand
									{
										OFFSET 40.960209 0.000000 0.000000
										CHANNELS 3 Xrotation Yrotation Zrotation
										JOINT LeftHandThumb1
										{
											OFFSET 10.006996 -7.170425 9.573125
											CHANNELS 3 Xrotation Yrotation Zrotation
											JOINT LeftHandThumb2
											{
												OFFSET 1.835007 -1.059448 1.059443
												CHANNELS 3 Xrotation Yrotation Zrotation
												JOINT LeftHandThumb3
												{
													OFFSET 2.112267 -1.219513 1.219518
													CHANNELS 3 Xrotation Yrotation Zrotation
													JOINT LeftHandThumb4
													{
														OFFSET 4.843811 -2.796570 2.796576
														CHANNELS 3 Xrotation Yrotation Zrotation
														End Site
														{
															OFFSET 0.000000 0.000000 0.000000
														}
													}
												}
											}
										}
										JOINT LeftHandIndex1
										{
											OFFSET 18.389847 -0.922348 4.596882
											CHANNELS 3 Xrotation Yrotation Zrotation
											JOINT LeftHandIndex2
											{
												OFFSET 4.711273 0.000000 0.000000
												CHANNELS 3 Xrotation Yrotation Zrotation
												JOINT LeftHandIndex3
												{
													OFFSET 2.886131 0.000000 0.000000
													CHANNELS 3 Xrotation Yrotation Zrotation
													JOINT LeftHandIndex4
													{
														OFFSET 6.145912 0.000000 0.000000
														CHANNELS 3 Xrotation Yrotation Zrotation
														End Site
														{
															OFFSET 0.000000 0.000000 0.000000
														}
													}
												}
											}
										}
										JOINT LeftHandMiddle1
										{
											OFFSET 18.013008 0.000000 0.000000
											CHANNELS 3 Xrotation Yrotation Zrotation
											JOINT LeftHandMiddle2
											{
												OFFSET 4.946693 0.000000 0.000000
												CHANNELS 3 Xrotation Yrotation Zrotation
												JOINT LeftHandMiddle3
												{
													OFFSET 3.342232 0.000000 0.000000
													CHANNELS 3 Xrotation Yrotation Zrotation
													JOINT LeftHandMiddle4
													{
														OFFSET 4.461754 0.000000 0.000000
														CHANNELS 3 Xrotation Yrotation Zrotation
														End Site
														{
															OFFSET 0.000000 0.000000 0.000000
														}
													}
												}
											}
										}
										JOINT LeftHandRing1
										{
											OFFSET 15.849892 -0.102921 -4.126150
											CHANNELS 3 Xrotation Yrotation Zrotation
											JOINT LeftHandRing2
											{
												OFFSET 3.527054 0.000000 0.000000
												CHANNELS 3 Xrotation Yrotation Zrotation
												JOINT LeftHandRing3
												{
													OFFSET 2.961098 0.000000 0.000000
													CHANNELS 3 Xrotation Yrotation Zrotation
													JOINT LeftHandRing4
													{
														OFFSET 4.927200 0.000000 0.000000
														CHANNELS 3 Xrotation Yrotation Zrotation
														End Site
														{
															OFFSET 0.000000 0.000000 0.000000
														}
													}
												}
											}
										}
										JOINT LeftHandPinky1
										{
											OFFSET 12.791824 -0.832031 -6.799156
											CHANNELS 3 Xrotation Yrotation Zrotation
											JOINT LeftHandPinky2
											{
												OFFSET 3.327133 0.000000 0.000000
												CHANNELS 3 Xrotation Yrotation Zrotation
												JOINT LeftHandPinky3
												{
													OFFSET 3.014900 0.000000 0.000000
													CHANNELS 3 Xrotation Yrotation Zrotation
													JOINT LeftHandPinky4
													{
														OFFSET 5.847786 0.000000 0.000000
														CHANNELS 3 Xrotation Yrotation Zrotation
														End Site
														{
															OFFSET 0.000000 0.000000 0.000000
														}
													}
												}
											}
										}
									}
								}
							}
						}
					}
					JOINT RightShoulder
					{
						OFFSET -6.292450 5.785301 -0.669000
						CHANNELS 3 Xrotation Yrotation Zrotation
						JOINT RightShoulder_split
						{
							OFFSET -6.292450 5.785301 -0.669000
							CHANNELS 3 Xrotation Yrotation Zrotation
							JOINT RightArm
							{
								OFFSET -13.907140 -6.093903 1.965100
								CHANNELS 3 Xrotation Yrotation Zrotation
								JOINT RightForeArm
								{
									OFFSET -34.140198 0.000000 0.000000
									CHANNELS 3 Xrotation Yrotation Zrotation
									JOINT RightHand
									{
										OFFSET -40.960209 0.000000 0.000000
										CHANNELS 3 Xrotation Yrotation Zrotation
										JOINT RightHandThumb1
										{
											OFFSET -10.007050 -7.170456 9.573117
											CHANNELS 3 Xrotation Yrotation Zrotation
											JOINT RightHandThumb2
											{
												OFFSET -1.835007 -1.059448 1.059443
												CHANNELS 3 Xrotation Yrotation Zrotation
												JOINT RightHandThumb3
												{
													OFFSET -2.112267 -1.219513 1.219518
													CHANNELS 3 Xrotation Yrotation Zrotation
													JOINT RightHandThumb4
													{
														OFFSET -4.843834 -2.796585 2.796590
														CHANNELS 3 Xrotation Yrotation Zrotation
														End Site
														{
															OFFSET 0.000000 0.000000 0.000000
														}
													}
												}
											}
										}
										JOINT RightHandIndex1
										{
											OFFSET -18.389870 -0.922424 4.596786
											CHANNELS 3 Xrotation Yrotation Zrotation
											JOINT RightHandIndex2
											{
												OFFSET -4.711273 0.000000 0.000000
												CHANNELS 3 Xrotation Yrotation Zrotation
												JOINT RightHandIndex3
												{
													OFFSET -2.886131 0.000000 0.000000
													CHANNELS 3 Xrotation Yrotation Zrotation
													JOINT RightHandIndex4
													{
														OFFSET -6.145920 0.000000 0.000000
														CHANNELS 3 Xrotation Yrotation Zrotation
														End Site
														{
															OFFSET 0.000000 0.000000 0.000000
														}
													}
												}
											}
										}
										JOINT RightHandMiddle1
										{
											OFFSET -18.013008 0.000000 0.000000
											CHANNELS 3 Xrotation Yrotation Zrotation
											JOINT RightHandMiddle2
											{
												OFFSET -4.946693 0.000000 0.000000
												CHANNELS 3 Xrotation Yrotation Zrotation
												JOINT RightHandMiddle3
												{
													OFFSET -3.342232 0.000000 0.000000
													CHANNELS 3 Xrotation Yrotation Zrotation
													JOINT RightHandMiddle4
													{
														OFFSET -4.461754 0.000000 0.000000
														CHANNELS 3 Xrotation Yrotation Zrotation
														End Site
														{
															OFFSET 0.000000 0.000000 0.000000
														}
													}
												}
											}
										}
										JOINT RightHandRing1
										{
											OFFSET -15.849876 -0.102936 -4.126237
											CHANNELS 3 Xrotation Yrotation Zrotation
											JOINT RightHandRing2
											{
												OFFSET -3.527054 0.000000 0.000000
												CHANNELS 3 Xrotation Yrotation Zrotation
												JOINT RightHandRing3
												{
													OFFSET -2.961098 0.000000 0.000000
													CHANNELS 3 Xrotation Yrotation Zrotation
													JOINT RightHandRing4
													{
														OFFSET -4.927200 0.000000 0.000000
														CHANNELS 3 Xrotation Yrotation Zrotation
														End Site
														{
															OFFSET 0.000000 0.000000 0.000000
														}
													}
												}
											}
										}
										JOINT RightHandPinky1
										{
											OFFSET -12.791786 -0.832077 -6.799222
											CHANNELS 3 Xrotation Yrotation Zrotation
											JOINT RightHandPinky2
											{
												OFFSET -3.327133 0.000000 0.000000
												CHANNELS 3 Xrotation Yrotation Zrotation
												JOINT RightHandPinky3
												{
													OFFSET -3.014900 0.000000 0.000000
													CHANNELS 3 Xrotation Yrotation Zrotation
													JOINT RightHandPinky4
													{
														OFFSET -5.847786 0.000000 0.000000
														CHANNELS 3 Xrotation Yrotation Zrotation
														End Site
														{
															OFFSET 0.000000 0.000000 0.000000
														}
													}
												}
											}
										}
									}
								}
							}
						}
					}
				}
			}
		}
	}
	JOINT LeftUpLeg
	{
		OFFSET 13.026900 -6.336304 -1.092800
		CHANNELS 3 Xrotation Yrotation Zrotation
		JOINT LeftLeg
		{
			OFFSET 0.524474 -46.096886 9.782700
			CHANNELS 3 Xrotation Yrotation Zrotation
			JOINT LeftFoot
			{
				OFFSET -0.524474 -53.427422 -12.948200
				CHANNELS 3 Xrotation Yrotation Zrotation
				JOINT LeftToeBase
				{
					OFFSET 0.192200 -14.009700 16.364100
					CHANNELS 3 Xrotation Yrotation Zrotation
					JOINT LeftToe_End
					{
						OFFSET -1.784700 -0.561700 9.474800
						CHANNELS 3 Xrotation Yrotation Zrotation
						End Site
						{
							OFFSET 0.000000 0.000000 0.000000
						}
					}
				}
			}
		}
	}
	JOINT RightUpLeg
	{
		OFFSET -12.883000 -6.336304 -1.092800
		CHANNELS 3 Xrotation Yrotation Zrotation
		JOINT RightLeg
		{
			OFFSET -0.524587 -46.096825 9.782800
			CHANNELS 3 Xrotation Yrotation Zrotation
			JOINT RightFoot
			{
				OFFSET 0.524587 -53.427383 -12.948300
				CHANNELS 3 Xrotation Yrotation Zrotation
				JOINT RightToeBase
				{
					OFFSET -0.192200 -14.009700 16.364100
					CHANNELS 3 Xrotation Yrotation Zrotation
					JOINT RightToe_End
					{
						OFFSET 1.784700 -0.561700 9.474800
						CHANNELS 3 Xrotation Yrotation Zrotation
						End Site
						{
							OFFSET 0.000000 0.000000 0.000000
						}
					}
				}
			}
		}
	}
}
MOTION
Frames: 4
Frame Time: 0.016667
-12.361483 150.588165 -8.929390 9.940173 -12.779257 -0.414767 33.377594 7.030445 0.703017 7.016417 1.371148 0.932972 0.000000 0.000000 0.000000 7.016136 1.356910 0.957109 7.978318 3.451511 1.914782 -5.460694 28.728141 -21.647098 -0.000002 0.000000 -0.000001 0.333777 -3.623990 3.511467 0.000000 0.000000 0.000000 -39.710945 20.403435 24.454218 0.000004 -1.659876 0.000004 5.337917 -17.498070 -30.910472 -1.512202 3.683033 6.110830 3.939048 7.948704 0.746793 -0.579465 1.575008 2.538716 0.000003 0.000000 -0.000002 0.033123 0.675969 -5.610576 0.032968 0.674437 -5.597731 0.032968 0.674428 -5.597735 -0.000000 0.000000 0.000000 0.069854 0.980277 -8.151092 0.078699 1.040174 -8.653185 0.076505 1.025681 -8.531524 -0.000000 -0.000002 -0.000003 0.141434 1.391203 -11.609553 0.158267 1.470736 -12.283645 0.154443 1.453026 -12.133361 0.000002 -0.000001 0.000003 1.260515 5.698234 -14.444245 0.229456 -2.281934 -15.368571 0.231650 1.774433 -14.874743 -0.000001 0.000001 0.000002 -3.152576 -6.176010 -32.353537 0.000000 0.000000 0.000000 -43.155324 11.870937 -9.722805 0.000001 13.107157 0.000008 11.026646 -9.559006 61.789935 -1.849248 -3.581786 -6.586135 4.637192 -8.634129 -0.225393 -1.273766 0.137318 -2.094860 0.000000 0.000000 0.000001 0.097310 -1.161582 9.577307 0.097317 -1.161570 9.577310 0.097304 -1.161577 9.577302 -0.000001 0.000001 -0.000001 0.734459 -4.504871 10.622728 0.142210 -1.401923 11.584700 -0.321093 -1.479195 11.440321 -0.000000 0.000000 -0.000003 1.799553 -8.681485 12.425405 0.204355 -1.676595 13.897336 -0.341217 -1.789779 13.721055 0.000002 0.000001 0.000001 3.082006 -12.378823 14.479198 0.252504 -1.860356 15.457615 0.252506 -1.860359 15.457623 -0.000002 -0.000002 0.000001 -143.952452 -37.873016 25.825333 118.442283 -23.739275 -6.702452 34.370530 -23.554035 -11.213354 -0.018044 -0.000001 0.000002 0.000001 0.000001 -0.000000 -100.542734 52.723760 -38.308496 128.899398 19.569136 4.355688 11.246495 15.185153 55.163869 -0.009372 0.000004 0.000003 -0.000000 0.000002 -0.000001 
-12.278047 149.416870 -8.768896 10.352316 -12.377309 0.292546 32.990408 6.730234 0.034448 6.928084 1.411407 0.809337 0.000000 0.000000 0.000000 6.927399 1.400736 0.834282 8.137137 3.359823 2.019694 -4.939802 28.238411 -21.457490 0.000002 0.000002 -0.000000 0.260224 -3.373977 3.577375 0.000000 0.000000 0.000000 -40.196053 20.677971 26.508050 -0.000005 -2.492641 0.000011 7.106735 -15.300570 -31.430625 -1.511010 3.682989 6.108664 3.939051 7.948704 0.746793 -0.579465 1.575007 2.538716 -0.000003 -0.000000 -0.000000 0.033127 0.675969 -5.610576 0.032967 0.674437 -5.597730 0.032974 0.674429 -5.597735 -0.000001 0.000000 -0.000000 0.069857 0.980276 -8.151093 0.078695 1.040173 -8.653186 0.076505 1.025681 -8.531527 -0.000000 0.000001 -0.000002 0.141437 1.391202 -11.609553 0.158270 1.470737 -12.283646 0.154443 1.453027 -12.133359 -0.000003 -0.000002 -0.000002 1.260518 5.698234 -14.444248 0.229450 -2.281936 -15.368569 0.231656 1.774433 -14.874743 -0.000001 0.000002 0.000001 -2.438241 -4.287078 -32.305562 0.000000 0.000000 0.000000 -40.704041 7.760218 -13.687626 0.000000 15.033130 -0.000009 9.217873 -10.057906 64.473496 -1.849257 -3.581787 -6.586137 4.637190 -8.634127 -0.225392 -1.273761 0.137315 -2.094866 -0.000001 -0.000001 -0.000001 0.097306 -1.161584 9.577301 0.097317 -1.161567 9.577319 0.097308 -1.161577 9.577301 0.000000 -0.000003 0.000001 0.734452 -4.504875 10.622726 0.142210 -1.401924 11.584702 -0.321092 -1.479192 11.440319 -0.000000 0.000002 -0.000002 1.799550 -8.681486 12.425402 0.204350 -1.676594 13.897338 -0.341216 -1.789781 13.721053 0.000001 -0.000002 0.000002 3.081999 -12.378821 14.479197 0.252509 -1.860358 15.457615 0.252506 -1.860354 15.457627 -0.000001 -0.000001 0.000001 -143.029762 -36.822745 28.588542 118.104325 -23.898328 -8.659450 35.431442 -25.223151 -7.928457 -0.018063 -0.000002 0.000003 0.000002 -0.000000 0.000001 -96.010268 51.263947 -42.298388 127.600938 19.494251 5.368265 10.169889 14.772430 52.670765 -0.008784 0.000000 0.000007 0.000002 0.000000 0.000002 
-12.121804 147.740417 -8.564009 10.323725 -12.433343 0.551396 32.243674 6.701406 -0.466726 6.762698 1.484585 0.721723 0.000000 0.000000 0.000000 6.761555 1.477280 0.747489 8.034093 3.323869 2.004735 -4.484721 27.881876 -21.407109 0.000002 -0.000001 -0.000000 0.150303 -2.880988 3.833599 0.000000 0.000000 0.000000 -39.803354 20.644054 27.958497 0.000004 -3.001041 -0.000001 7.784228 -14.020441 -32.303421 -1.509856 3.682951 6.106610 3.939049 7.948705 0.746794 -0.579468 1.575005 2.538713 -0.000002 -0.000002 0.000000 0.033124 0.675969 -5.610577 0.032969 0.674437 -5.597730 0.032969 0.674427 -5.597737 -0.000000 0.000001 0.000001 0.069852 0.980277 -8.151093 0.078696 1.040173 -8.653186 0.076505 1.025681 -8.531522 0.000001 0.000003 -0.000000 0.141433 1.391202 -11.609557 0.158270 1.470737 -12.283645 0.154442 1.453028 -12.133356 -0.000002 0.000001 0.000000 1.260515 5.698235 -14.444250 0.229457 -2.281933 -15.368573 0.231657 1.774431 -14.874747 -0.000002 0.000002 -0.000001 -1.787096 -2.322995 -32.141975 0.000000 0.000000 0.000000 -38.691526 3.637150 -16.996649 0.000010 17.122620 -0.000002 6.431849 -10.848093 65.605258 -1.849253 -3.581787 -6.586136 4.637189 -8.634132 -0.225399 -1.273764 0.137317 -2.094863 0.000001 0.000001 0.000002 0.097307 -1.161582 9.577305 0.097316 -1.161569 9.577314 0.097310 -1.161578 9.577302 -0.000001 -0.000001 0.000001 0.734453 -4.504873 10.622731 0.142216 -1.401929 11.584703 -0.321090 -1.479194 11.440317 -0.000001 0.000004 0.000000 1.799553 -8.681486 12.425402 0.204355 -1.676593 13.897339 -0.341216 -1.789776 13.721053 0.000001 0.000001 0.000001 3.081996 -12.378820 14.479198 0.252502 -1.860355 15.457616 0.252507 -1.860358 15.457625 -0.000002 -0.000003 0.000000 -141.289949 -34.962564 30.228266 117.788716 -23.505847 -9.670019 36.738727 -24.439312 -4.526705 -0.018099 -0.000013 -0.000002 0.000001 -0.000000 0.000000 -93.100055 48.244788 -43.369871 126.430285 18.829942 5.673318 7.854673 13.868879 50.418421 -0.008129 -0.000012 0.000005 0.000001 0.000001 0.000001 
-11.901983 145.607712 -8.421644 10.020032 -12.672023 0.553998 31.221635 6.874576 -0.816924 6.538967 1.568812 0.665331 0.000000 0.000000 0.000000 6.537236 1.564635 0.691663 7.825985 3.324095 1.952253 -4.157730 27.663969 -21.379892 -0.000003 0.000002 -0.000000 0.039207 -2.385780 4.168919 0.000000 0.000000 0.000000 -38.968319 20.585630 29.044399 0.000004 -3.374198 -0.000006 8.050759 -13.187926 -33.345906 -1.508782 3.682915 6.104660 3.939050 7.948703 0.746793 -0.579468 1.575007 2.538716 -0.000001 -0.000001 -0.000000 0.033126 0.675969 -5.610577 0.032967 0.674437 -5.597730 0.032972 0.674428 -5.597734 0.000000 0.000000 0.000000 0.069856 0.980277 -8.151093 0.078696 1.040174 -8.653185 0.076506 1.025681 -8.531525 -0.000000 0.000000 -0.000002 0.141437 1.391203 -11.609554 0.158268 1.470737 -12.283644 0.154444 1.453025 -12.133364 0.000004 -0.000002 -0.000001 1.260518 5.698234 -14.444245 0.229458 -2.281936 -15.368569 0.231657 1.774434 -14.874748 0.000001 0.000001 0.000000 -1.195180 -0.396600 -31.763344 0.000000 0.000000 0.000000 -37.135144 -0.211833 -19.628944 0.000008 19.145505 -0.000010 4.004381 -11.617248 66.067225 -1.849255 -3.581787 -6.586132 4.637189 -8.634131 -0.225394 -1.273760 0.137316 -2.094865 -0.000001 -0.000001 0.000000 0.097307 -1.161581 9.577300 0.097308 -1.161570 9.577313 0.097308 -1.161579 9.577304 0.000001 -0.000000 -0.000001 0.734450 -4.504872 10.622731 0.142211 -1.401924 11.584703 -0.321087 -1.479198 11.440320 0.000001 -0.000001 0.000000 1.799548 -8.681485 12.425406 0.204354 -1.676596 13.897337 -0.341217 -1.789776 13.721052 -0.000002 -0.000003 0.000002 3.081996 -12.378821 14.479198 0.252507 -1.860354 15.457613 0.252505 -1.860359 15.457623 -0.000001 -0.000001 0.000003 -139.066613 -32.575645 30.936430 117.570368 -22.580392 -9.884838 37.213497 -22.692079 -1.919274 -0.017427 0.000008 -0.000002 0.000002 -0.000000 0.000000 -90.922747 44.465556 -42.571777 125.354366 17.795976 5.482072 4.779039 12.465456 48.416779 -0.007155 -0.000002 -0.000000 0.000000 -0.000001 0.000001 
